<svg xmlns="http://www.w3.org/2000/svg"><symbol id="80406"><g transform="translate(30, 14)" class="react-calendar-heatmap-all-weeks"><g transform="translate(0, 0)" class="react-calendar-heatmap-week"><rect width="10" height="10" x="0" y="81" class="scale-4"><title></title></rect></g><g transform="translate(13.5, 0)" class="react-calendar-heatmap-week"><rect width="10" height="10" x="0" y="0" class="scale-2"><title></title></rect><rect width="10" height="10" x="0" y="13.5" class="scale-2"><title></title></rect><rect width="10" height="10" x="0" y="27" class="scale-1"><title></title></rect><rect width="10" height="10" x="0" y="40.5" class="scale-3"><title></title></rect><rect width="10" height="10" x="0" y="54" class="scale-2"><title></title></rect><rect width="10" height="10" x="0" y="67.5" class="scale-1"><title></title></rect><rect width="10" height="10" x="0" y="81" class="scale-0"><title></title></rect></g><g transform="translate(27, 0)" class="react-calendar-heatmap-week"><rect width="10" height="10" x="0" y="0" class="scale-2"><title></title></rect><rect width="10" height="10" x="0" y="13.5" class="scale-1"><title></title></rect><rect width="10" height="10" x="0" y="27" class="scale-0"><title></title></rect><rect width="10" height="10" x="0" y="40.5" class="scale-3"><title></title></rect><rect width="10" height="10" x="0" y="54" class="scale-1"><title></title></rect><rect width="10" height="10" x="0" y="67.5" class="scale-2"><title></title></rect><rect width="10" height="10" x="0" y="81" class="scale-3"><title></title></rect></g><g transform="translate(40.5, 0)" class="react-calendar-heatmap-week"><rect width="10" height="10" x="0" y="0" class="scale-1"><title></title></rect><rect width="10" height="10" x="0" y="13.5" class="scale-1"><title></title></rect><rect width="10" height="10" x="0" y="27" class="scale-0"><title></title></rect><rect width="10" height="10" x="0" y="40.5" class="scale-4"><title></title></rect><rect width="10" height="10" x="0" y="54" class="scale-3"><title></title></rect><rect width="10" height="10" x="0" y="67.5" class="scale-2"><title></title></rect><rect width="10" height="10" x="0" y="81" class="scale-2"><title></title></rect></g><g transform="translate(54, 0)" class="react-calendar-heatmap-week"><rect width="10" height="10" x="0" y="0" class="scale-4"><title></title></rect><rect width="10" height="10" x="0" y="13.5" class="scale-1"><title></title></rect><rect width="10" height="10" x="0" y="27" class="scale-2"><title></title></rect><rect width="10" height="10" x="0" y="40.5" class="scale-2"><title></title></rect><rect width="10" height="10" x="0" y="54" class="scale-3"><title></title></rect><rect width="10" height="10" x="0" y="67.5" class="scale-3"><title></title></rect><rect width="10" height="10" x="0" y="81" class="scale-4"><title></title></rect></g><g transform="translate(67.5, 0)" class="react-calendar-heatmap-week"><rect width="10" height="10" x="0" y="0" class="scale-2"><title></title></rect><rect width="10" height="10" x="0" y="13.5" class="scale-3"><title></title></rect><rect width="10" height="10" x="0" y="27" class="scale-2"><title></title></rect><rect width="10" height="10" x="0" y="40.5" class="scale-3"><title></title></rect><rect width="10" height="10" x="0" y="54" class="scale-4"><title></title></rect><rect width="10" height="10" x="0" y="67.5" class="scale-0"><title></title></rect><rect width="10" height="10" x="0" y="81" class="scale-3"><title></title></rect></g><g transform="translate(81, 0)" class="react-calendar-heatmap-week"><rect width="10" height="10" x="0" y="0" class="scale-1"><title></title></rect><rect width="10" height="10" x="0" y="13.5" class="scale-2"><title></title></rect><rect width="10" height="10" x="0" y="27" class="scale-2"><title></title></rect><rect width="10" height="10" x="0" y="40.5" class="scale-0"><title></title></rect><rect width="10" height="10" x="0" y="54" class="scale-4"><title></title></rect><rect width="10" height="10" x="0" y="67.5" class="scale-1"><title></title></rect><rect width="10" height="10" x="0" y="81" class="scale-1"><title></title></rect></g><g transform="translate(94.5, 0)" class="react-calendar-heatmap-week"><rect width="10" height="10" x="0" y="0" class="scale-1"><title></title></rect><rect width="10" height="10" x="0" y="13.5" class="scale-2"><title></title></rect><rect width="10" height="10" x="0" y="27" class="scale-1"><title></title></rect><rect width="10" height="10" x="0" y="40.5" class="scale-2"><title></title></rect><rect width="10" height="10" x="0" y="54" class="scale-2"><title></title></rect><rect width="10" height="10" x="0" y="67.5" class="scale-3"><title></title></rect><rect width="10" height="10" x="0" y="81" class="scale-4"><title></title></rect></g><g transform="translate(108, 0)" class="react-calendar-heatmap-week"><rect width="10" height="10" x="0" y="0" class="scale-0"><title></title></rect><rect width="10" height="10" x="0" y="13.5" class="scale-1"><title></title></rect><rect width="10" height="10" x="0" y="27" class="scale-0"><title></title></rect><rect width="10" height="10" x="0" y="40.5" class="scale-4"><title></title></rect><rect width="10" height="10" x="0" y="54" class="scale-2"><title></title></rect><rect width="10" height="10" x="0" y="67.5" class="scale-3"><title></title></rect><rect width="10" height="10" x="0" y="81" class="scale-3"><title></title></rect></g><g transform="translate(121.5, 0)" class="react-calendar-heatmap-week"><rect width="10" height="10" x="0" y="0" class="scale-3"><title></title></rect><rect width="10" height="10" x="0" y="13.5" class="scale-3"><title></title></rect><rect width="10" height="10" x="0" y="27" class="scale-2"><title></title></rect><rect width="10" height="10" x="0" y="40.5" class="scale-3"><title></title></rect><rect width="10" height="10" x="0" y="54" class="scale-2"><title></title></rect><rect width="10" height="10" x="0" y="67.5" class="scale-3"><title></title></rect><rect width="10" height="10" x="0" y="81" class="scale-1"><title></title></rect></g><g transform="translate(135, 0)" class="react-calendar-heatmap-week"><rect width="10" height="10" x="0" y="0" class="scale-1"><title></title></rect><rect width="10" height="10" x="0" y="13.5" class="scale-1"><title></title></rect><rect width="10" height="10" x="0" y="27" class="scale-2"><title></title></rect><rect width="10" height="10" x="0" y="40.5" class="scale-2"><title></title></rect><rect width="10" height="10" x="0" y="54" class="scale-0"><title></title></rect><rect width="10" height="10" x="0" y="67.5" class="scale-2"><title></title></rect><rect width="10" height="10" x="0" y="81" class="scale-1"><title></title></rect></g><g transform="translate(148.5, 0)" class="react-calendar-heatmap-week"><rect width="10" height="10" x="0" y="0" class="scale-1"><title></title></rect><rect width="10" height="10" x="0" y="13.5" class="scale-2"><title></title></rect><rect width="10" height="10" x="0" y="27" class="scale-1"><title></title></rect><rect width="10" height="10" x="0" y="40.5" class="scale-1"><title></title></rect><rect width="10" height="10" x="0" y="54" class="scale-3"><title></title></rect><rect width="10" height="10" x="0" y="67.5" class="scale-3"><title></title></rect><rect width="10" height="10" x="0" y="81" class="scale-3"><title></title></rect></g><g transform="translate(162, 0)" class="react-calendar-heatmap-week"><rect width="10" height="10" x="0" y="0" class="scale-2"><title></title></rect><rect width="10" height="10" x="0" y="13.5" class="scale-0"><title></title></rect><rect width="10" height="10" x="0" y="27" class="scale-1"><title></title></rect><rect width="10" height="10" x="0" y="40.5" class="scale-0"><title></title></rect><rect width="10" height="10" x="0" y="54" class="scale-4"><title></title></rect><rect width="10" height="10" x="0" y="67.5" class="scale-2"><title></title></rect><rect width="10" height="10" x="0" y="81" class="scale-2"><title></title></rect></g><g transform="translate(175.5, 0)" class="react-calendar-heatmap-week"><rect width="10" height="10" x="0" y="0" class="scale-3"><title></title></rect><rect width="10" height="10" x="0" y="13.5" class="scale-2"><title></title></rect><rect width="10" height="10" x="0" y="27" class="scale-0"><title></title></rect><rect width="10" height="10" x="0" y="40.5" class="scale-1"><title></title></rect><rect width="10" height="10" x="0" y="54" class="scale-1"><title></title></rect><rect width="10" height="10" x="0" y="67.5" class="scale-2"><title></title></rect><rect width="10" height="10" x="0" y="81" class="scale-0"><title></title></rect></g><g transform="translate(189, 0)" class="react-calendar-heatmap-week"><rect width="10" height="10" x="0" y="0" class="scale-3"><title></title></rect><rect width="10" height="10" x="0" y="13.5" class="scale-4"><title></title></rect><rect width="10" height="10" x="0" y="27" class="scale-4"><title></title></rect><rect width="10" height="10" x="0" y="40.5" class="scale-2"><title></title></rect><rect width="10" height="10" x="0" y="54" class="scale-4"><title></title></rect><rect width="10" height="10" x="0" y="67.5" class="scale-2"><title></title></rect><rect width="10" height="10" x="0" y="81" class="scale-3"><title></title></rect></g><g transform="translate(202.5, 0)" class="react-calendar-heatmap-week"><rect width="10" height="10" x="0" y="0" class="scale-2"><title></title></rect><rect width="10" height="10" x="0" y="13.5" class="scale-1"><title></title></rect><rect width="10" height="10" x="0" y="27" class="scale-0"><title></title></rect><rect width="10" height="10" x="0" y="40.5" class="scale-3"><title></title></rect><rect width="10" height="10" x="0" y="54" class="scale-2"><title></title></rect><rect width="10" height="10" x="0" y="67.5" class="scale-3"><title></title></rect><rect width="10" height="10" x="0" y="81" class="scale-4"><title></title></rect></g><g transform="translate(216, 0)" class="react-calendar-heatmap-week"><rect width="10" height="10" x="0" y="0" class="scale-1"><title></title></rect><rect width="10" height="10" x="0" y="13.5" class="scale-3"><title></title></rect><rect width="10" height="10" x="0" y="27" class="scale-4"><title></title></rect><rect width="10" height="10" x="0" y="40.5" class="scale-3"><title></title></rect><rect width="10" height="10" x="0" y="54" class="scale-3"><title></title></rect><rect width="10" height="10" x="0" y="67.5" class="scale-4"><title></title></rect><rect width="10" height="10" x="0" y="81" class="scale-0"><title></title></rect></g><g transform="translate(229.5, 0)" class="react-calendar-heatmap-week"><rect width="10" height="10" x="0" y="0" class="scale-3"><title></title></rect><rect width="10" height="10" x="0" y="13.5" class="scale-1"><title></title></rect><rect width="10" height="10" x="0" y="27" class="scale-1"><title></title></rect><rect width="10" height="10" x="0" y="40.5" class="scale-1"><title></title></rect><rect width="10" height="10" x="0" y="54" class="scale-1"><title></title></rect><rect width="10" height="10" x="0" y="67.5" class="scale-3"><title></title></rect><rect width="10" height="10" x="0" y="81" class="scale-1"><title></title></rect></g><g transform="translate(243, 0)" class="react-calendar-heatmap-week"><rect width="10" height="10" x="0" y="0" class="scale-2"><title></title></rect><rect width="10" height="10" x="0" y="13.5" class="scale-1"><title></title></rect><rect width="10" height="10" x="0" y="27" class="scale-2"><title></title></rect><rect width="10" height="10" x="0" y="40.5" class="scale-3"><title></title></rect><rect width="10" height="10" x="0" y="54" class="scale-1"><title></title></rect><rect width="10" height="10" x="0" y="67.5" class="scale-4"><title></title></rect><rect width="10" height="10" x="0" y="81" class="scale-3"><title></title></rect></g><g transform="translate(256.5, 0)" class="react-calendar-heatmap-week"><rect width="10" height="10" x="0" y="0" class="scale-3"><title></title></rect><rect width="10" height="10" x="0" y="13.5" class="scale-0"><title></title></rect><rect width="10" height="10" x="0" y="27" class="scale-1"><title></title></rect><rect width="10" height="10" x="0" y="40.5" class="scale-2"><title></title></rect><rect width="10" height="10" x="0" y="54" class="scale-2"><title></title></rect><rect width="10" height="10" x="0" y="67.5" class="scale-2"><title></title></rect><rect width="10" height="10" x="0" y="81" class="scale-1"><title></title></rect></g><g transform="translate(270, 0)" class="react-calendar-heatmap-week"><rect width="10" height="10" x="0" y="0" class="scale-1"><title></title></rect><rect width="10" height="10" x="0" y="13.5" class="scale-3"><title></title></rect><rect width="10" height="10" x="0" y="27" class="scale-3"><title></title></rect><rect width="10" height="10" x="0" y="40.5" class="scale-2"><title></title></rect><rect width="10" height="10" x="0" y="54" class="scale-1"><title></title></rect><rect width="10" height="10" x="0" y="67.5" class="scale-1"><title></title></rect><rect width="10" height="10" x="0" y="81" class="scale-2"><title></title></rect></g><g transform="translate(283.5, 0)" class="react-calendar-heatmap-week"><rect width="10" height="10" x="0" y="0" class="scale-0"><title></title></rect><rect width="10" height="10" x="0" y="13.5" class="scale-2"><title></title></rect><rect width="10" height="10" x="0" y="27" class="scale-1"><title></title></rect><rect width="10" height="10" x="0" y="40.5" class="scale-1"><title></title></rect><rect width="10" height="10" x="0" y="54" class="scale-1"><title></title></rect><rect width="10" height="10" x="0" y="67.5" class="scale-3"><title></title></rect><rect width="10" height="10" x="0" y="81" class="scale-1"><title></title></rect></g><g transform="translate(297, 0)" class="react-calendar-heatmap-week"><rect width="10" height="10" x="0" y="0" class="scale-1"><title></title></rect><rect width="10" height="10" x="0" y="13.5" class="scale-0"><title></title></rect><rect width="10" height="10" x="0" y="27" class="scale-1"><title></title></rect><rect width="10" height="10" x="0" y="40.5" class="scale-3"><title></title></rect><rect width="10" height="10" x="0" y="54" class="scale-0"><title></title></rect><rect width="10" height="10" x="0" y="67.5" class="scale-2"><title></title></rect><rect width="10" height="10" x="0" y="81" class="scale-3"><title></title></rect></g><g transform="translate(310.5, 0)" class="react-calendar-heatmap-week"><rect width="10" height="10" x="0" y="0" class="scale-2"><title></title></rect><rect width="10" height="10" x="0" y="13.5" class="scale-1"><title></title></rect><rect width="10" height="10" x="0" y="27" class="scale-2"><title></title></rect><rect width="10" height="10" x="0" y="40.5" class="scale-0"><title></title></rect><rect width="10" height="10" x="0" y="54" class="scale-2"><title></title></rect><rect width="10" height="10" x="0" y="67.5" class="scale-4"><title></title></rect><rect width="10" height="10" x="0" y="81" class="scale-1"><title></title></rect></g><g transform="translate(324, 0)" class="react-calendar-heatmap-week"><rect width="10" height="10" x="0" y="0" class="scale-1"><title></title></rect><rect width="10" height="10" x="0" y="13.5" class="scale-1"><title></title></rect><rect width="10" height="10" x="0" y="27" class="scale-3"><title></title></rect><rect width="10" height="10" x="0" y="40.5" class="scale-1"><title></title></rect><rect width="10" height="10" x="0" y="54" class="scale-2"><title></title></rect><rect width="10" height="10" x="0" y="67.5" class="scale-2"><title></title></rect><rect width="10" height="10" x="0" y="81" class="scale-3"><title></title></rect></g><g transform="translate(337.5, 0)" class="react-calendar-heatmap-week"><rect width="10" height="10" x="0" y="0" class="scale-1"><title></title></rect><rect width="10" height="10" x="0" y="13.5" class="scale-3"><title></title></rect><rect width="10" height="10" x="0" y="27" class="scale-2"><title></title></rect><rect width="10" height="10" x="0" y="40.5" class="scale-2"><title></title></rect><rect width="10" height="10" x="0" y="54" class="scale-0"><title></title></rect><rect width="10" height="10" x="0" y="67.5" class="scale-1"><title></title></rect><rect width="10" height="10" x="0" y="81" class="scale-3"><title></title></rect></g><g transform="translate(351, 0)" class="react-calendar-heatmap-week"><rect width="10" height="10" x="0" y="0" class="scale-3"><title></title></rect><rect width="10" height="10" x="0" y="13.5" class="scale-2"><title></title></rect><rect width="10" height="10" x="0" y="27" class="scale-3"><title></title></rect><rect width="10" height="10" x="0" y="40.5" class="scale-2"><title></title></rect><rect width="10" height="10" x="0" y="54" class="scale-2"><title></title></rect><rect width="10" height="10" x="0" y="67.5" class="scale-1"><title></title></rect><rect width="10" height="10" x="0" y="81" class="scale-2"><title></title></rect></g><g transform="translate(364.5, 0)" class="react-calendar-heatmap-week"><rect width="10" height="10" x="0" y="0" class="scale-2"><title></title></rect><rect width="10" height="10" x="0" y="13.5" class="scale-1"><title></title></rect><rect width="10" height="10" x="0" y="27" class="scale-2"><title></title></rect><rect width="10" height="10" x="0" y="40.5" class="scale-2"><title></title></rect><rect width="10" height="10" x="0" y="54" class="scale-1"><title></title></rect><rect width="10" height="10" x="0" y="67.5" class="scale-4"><title></title></rect><rect width="10" height="10" x="0" y="81" class="scale-2"><title></title></rect></g><g transform="translate(378, 0)" class="react-calendar-heatmap-week"><rect width="10" height="10" x="0" y="0" class="scale-2"><title></title></rect><rect width="10" height="10" x="0" y="13.5" class="scale-0"><title></title></rect><rect width="10" height="10" x="0" y="27" class="scale-2"><title></title></rect><rect width="10" height="10" x="0" y="40.5" class="scale-4"><title></title></rect><rect width="10" height="10" x="0" y="54" class="scale-0"><title></title></rect><rect width="10" height="10" x="0" y="67.5" class="scale-2"><title></title></rect><rect width="10" height="10" x="0" y="81" class="scale-2"><title></title></rect></g><g transform="translate(391.5, 0)" class="react-calendar-heatmap-week"><rect width="10" height="10" x="0" y="0" class="scale-1"><title></title></rect><rect width="10" height="10" x="0" y="13.5" class="scale-2"><title></title></rect><rect width="10" height="10" x="0" y="27" class="scale-0"><title></title></rect><rect width="10" height="10" x="0" y="40.5" class="scale-4"><title></title></rect><rect width="10" height="10" x="0" y="54" class="scale-2"><title></title></rect><rect width="10" height="10" x="0" y="67.5" class="scale-3"><title></title></rect><rect width="10" height="10" x="0" y="81" class="scale-2"><title></title></rect></g><g transform="translate(405, 0)" class="react-calendar-heatmap-week"><rect width="10" height="10" x="0" y="0" class="scale-2"><title></title></rect><rect width="10" height="10" x="0" y="13.5" class="scale-3"><title></title></rect><rect width="10" height="10" x="0" y="27" class="scale-2"><title></title></rect><rect width="10" height="10" x="0" y="40.5" class="scale-2"><title></title></rect><rect width="10" height="10" x="0" y="54" class="scale-3"><title></title></rect><rect width="10" height="10" x="0" y="67.5" class="scale-1"><title></title></rect><rect width="10" height="10" x="0" y="81" class="scale-3"><title></title></rect></g><g transform="translate(418.5, 0)" class="react-calendar-heatmap-week"><rect width="10" height="10" x="0" y="0" class="scale-4"><title></title></rect><rect width="10" height="10" x="0" y="13.5" class="scale-0"><title></title></rect><rect width="10" height="10" x="0" y="27" class="scale-3"><title></title></rect><rect width="10" height="10" x="0" y="40.5" class="scale-2"><title></title></rect><rect width="10" height="10" x="0" y="54" class="scale-2"><title></title></rect><rect width="10" height="10" x="0" y="67.5" class="scale-3"><title></title></rect><rect width="10" height="10" x="0" y="81" class="scale-3"><title></title></rect></g><g transform="translate(432, 0)" class="react-calendar-heatmap-week"><rect width="10" height="10" x="0" y="0" class="scale-1"><title></title></rect><rect width="10" height="10" x="0" y="13.5" class="scale-2"><title></title></rect><rect width="10" height="10" x="0" y="27" class="scale-2"><title></title></rect><rect width="10" height="10" x="0" y="40.5" class="scale-3"><title></title></rect><rect width="10" height="10" x="0" y="54" class="scale-2"><title></title></rect><rect width="10" height="10" x="0" y="67.5" class="scale-2"><title></title></rect><rect width="10" height="10" x="0" y="81" class="scale-2"><title></title></rect></g><g transform="translate(445.5, 0)" class="react-calendar-heatmap-week"><rect width="10" height="10" x="0" y="0" class="scale-1"><title></title></rect><rect width="10" height="10" x="0" y="13.5" class="scale-1"><title></title></rect><rect width="10" height="10" x="0" y="27" class="scale-0"><title></title></rect><rect width="10" height="10" x="0" y="40.5" class="scale-4"><title></title></rect><rect width="10" height="10" x="0" y="54" class="scale-2"><title></title></rect><rect width="10" height="10" x="0" y="67.5" class="scale-0"><title></title></rect><rect width="10" height="10" x="0" y="81" class="scale-1"><title></title></rect></g><g transform="translate(459, 0)" class="react-calendar-heatmap-week"><rect width="10" height="10" x="0" y="0" class="scale-2"><title></title></rect><rect width="10" height="10" x="0" y="13.5" class="scale-0"><title></title></rect><rect width="10" height="10" x="0" y="27" class="scale-4"><title></title></rect><rect width="10" height="10" x="0" y="40.5" class="scale-1"><title></title></rect><rect width="10" height="10" x="0" y="54" class="scale-1"><title></title></rect><rect width="10" height="10" x="0" y="67.5" class="scale-2"><title></title></rect><rect width="10" height="10" x="0" y="81" class="scale-0"><title></title></rect></g><g transform="translate(472.5, 0)" class="react-calendar-heatmap-week"><rect width="10" height="10" x="0" y="0" class="scale-1"><title></title></rect><rect width="10" height="10" x="0" y="13.5" class="scale-0"><title></title></rect><rect width="10" height="10" x="0" y="27" class="scale-0"><title></title></rect><rect width="10" height="10" x="0" y="40.5" class="scale-2"><title></title></rect><rect width="10" height="10" x="0" y="54" class="scale-2"><title></title></rect><rect width="10" height="10" x="0" y="67.5" class="scale-3"><title></title></rect><rect width="10" height="10" x="0" y="81" class="scale-0"><title></title></rect></g><g transform="translate(486, 0)" class="react-calendar-heatmap-week"><rect width="10" height="10" x="0" y="0" class="scale-3"><title></title></rect><rect width="10" height="10" x="0" y="13.5" class="scale-2"><title></title></rect><rect width="10" height="10" x="0" y="27" class="scale-4"><title></title></rect><rect width="10" height="10" x="0" y="40.5" class="scale-2"><title></title></rect><rect width="10" height="10" x="0" y="54" class="scale-2"><title></title></rect><rect width="10" height="10" x="0" y="67.5" class="scale-1"><title></title></rect><rect width="10" height="10" x="0" y="81" class="scale-1"><title></title></rect></g><g transform="translate(499.5, 0)" class="react-calendar-heatmap-week"><rect width="10" height="10" x="0" y="0" class="scale-3"><title></title></rect><rect width="10" height="10" x="0" y="13.5" class="scale-2"><title></title></rect><rect width="10" height="10" x="0" y="27" class="scale-1"><title></title></rect><rect width="10" height="10" x="0" y="40.5" class="scale-2"><title></title></rect><rect width="10" height="10" x="0" y="54" class="scale-2"><title></title></rect><rect width="10" height="10" x="0" y="67.5" class="scale-2"><title></title></rect><rect width="10" height="10" x="0" y="81" class="scale-3"><title></title></rect></g><g transform="translate(513, 0)" class="react-calendar-heatmap-week"><rect width="10" height="10" x="0" y="0" class="scale-1"><title></title></rect><rect width="10" height="10" x="0" y="13.5" class="scale-3"><title></title></rect><rect width="10" height="10" x="0" y="27" class="scale-1"><title></title></rect><rect width="10" height="10" x="0" y="40.5" class="scale-2"><title></title></rect><rect width="10" height="10" x="0" y="54" class="scale-2"><title></title></rect><rect width="10" height="10" x="0" y="67.5" class="scale-1"><title></title></rect><rect width="10" height="10" x="0" y="81" class="scale-4"><title></title></rect></g><g transform="translate(526.5, 0)" class="react-calendar-heatmap-week"><rect width="10" height="10" x="0" y="0" class="scale-0"><title></title></rect><rect width="10" height="10" x="0" y="13.5" class="scale-3"><title></title></rect><rect width="10" height="10" x="0" y="27" class="scale-2"><title></title></rect><rect width="10" height="10" x="0" y="40.5" class="scale-0"><title></title></rect><rect width="10" height="10" x="0" y="54" class="scale-2"><title></title></rect><rect width="10" height="10" x="0" y="67.5" class="scale-2"><title></title></rect><rect width="10" height="10" x="0" y="81" class="scale-1"><title></title></rect></g><g transform="translate(540, 0)" class="react-calendar-heatmap-week"><rect width="10" height="10" x="0" y="0" class="scale-1"><title></title></rect><rect width="10" height="10" x="0" y="13.5" class="scale-2"><title></title></rect><rect width="10" height="10" x="0" y="27" class="scale-1"><title></title></rect><rect width="10" height="10" x="0" y="40.5" class="scale-0"><title></title></rect><rect width="10" height="10" x="0" y="54" class="scale-3"><title></title></rect><rect width="10" height="10" x="0" y="67.5" class="scale-1"><title></title></rect><rect width="10" height="10" x="0" y="81" class="scale-2"><title></title></rect></g><g transform="translate(553.5, 0)" class="react-calendar-heatmap-week"><rect width="10" height="10" x="0" y="0" class="scale-1"><title></title></rect><rect width="10" height="10" x="0" y="13.5" class="scale-3"><title></title></rect><rect width="10" height="10" x="0" y="27" class="scale-1"><title></title></rect><rect width="10" height="10" x="0" y="40.5" class="scale-3"><title></title></rect><rect width="10" height="10" x="0" y="54" class="scale-3"><title></title></rect><rect width="10" height="10" x="0" y="67.5" class="scale-1"><title></title></rect><rect width="10" height="10" x="0" y="81" class="scale-4"><title></title></rect></g><g transform="translate(567, 0)" class="react-calendar-heatmap-week"><rect width="10" height="10" x="0" y="0" class="scale-0"><title></title></rect><rect width="10" height="10" x="0" y="13.5" class="scale-0"><title></title></rect><rect width="10" height="10" x="0" y="27" class="scale-3"><title></title></rect><rect width="10" height="10" x="0" y="40.5" class="scale-0"><title></title></rect><rect width="10" height="10" x="0" y="54" class="scale-2"><title></title></rect><rect width="10" height="10" x="0" y="67.5" class="scale-4"><title></title></rect><rect width="10" height="10" x="0" y="81" class="scale-1"><title></title></rect></g><g transform="translate(580.5, 0)" class="react-calendar-heatmap-week"><rect width="10" height="10" x="0" y="0" class="scale-4"><title></title></rect><rect width="10" height="10" x="0" y="13.5" class="scale-2"><title></title></rect><rect width="10" height="10" x="0" y="27" class="scale-1"><title></title></rect><rect width="10" height="10" x="0" y="40.5" class="scale-1"><title></title></rect><rect width="10" height="10" x="0" y="54" class="scale-2"><title></title></rect><rect width="10" height="10" x="0" y="67.5" class="scale-3"><title></title></rect><rect width="10" height="10" x="0" y="81" class="scale-1"><title></title></rect></g><g transform="translate(594, 0)" class="react-calendar-heatmap-week"><rect width="10" height="10" x="0" y="0" class="scale-3"><title></title></rect><rect width="10" height="10" x="0" y="13.5" class="scale-0"><title></title></rect><rect width="10" height="10" x="0" y="27" class="scale-1"><title></title></rect><rect width="10" height="10" x="0" y="40.5" class="scale-3"><title></title></rect><rect width="10" height="10" x="0" y="54" class="scale-2"><title></title></rect><rect width="10" height="10" x="0" y="67.5" class="scale-3"><title></title></rect><rect width="10" height="10" x="0" y="81" class="scale-1"><title></title></rect></g><g transform="translate(607.5, 0)" class="react-calendar-heatmap-week"><rect width="10" height="10" x="0" y="0" class="scale-1"><title></title></rect><rect width="10" height="10" x="0" y="13.5" class="scale-1"><title></title></rect><rect width="10" height="10" x="0" y="27" class="scale-3"><title></title></rect><rect width="10" height="10" x="0" y="40.5" class="scale-3"><title></title></rect><rect width="10" height="10" x="0" y="54" class="scale-4"><title></title></rect><rect width="10" height="10" x="0" y="67.5" class="scale-3"><title></title></rect><rect width="10" height="10" x="0" y="81" class="scale-4"><title></title></rect></g><g transform="translate(621, 0)" class="react-calendar-heatmap-week"><rect width="10" height="10" x="0" y="0" class="scale-3"><title></title></rect><rect width="10" height="10" x="0" y="13.5" class="scale-3"><title></title></rect><rect width="10" height="10" x="0" y="27" class="scale-1"><title></title></rect><rect width="10" height="10" x="0" y="40.5" class="scale-4"><title></title></rect><rect width="10" height="10" x="0" y="54" class="scale-2"><title></title></rect><rect width="10" height="10" x="0" y="67.5" class="scale-3"><title></title></rect><rect width="10" height="10" x="0" y="81" class="scale-2"><title></title></rect></g><g transform="translate(634.5, 0)" class="react-calendar-heatmap-week"><rect width="10" height="10" x="0" y="0" class="scale-2"><title></title></rect><rect width="10" height="10" x="0" y="13.5" class="scale-3"><title></title></rect><rect width="10" height="10" x="0" y="27" class="scale-2"><title></title></rect><rect width="10" height="10" x="0" y="40.5" class="scale-0"><title></title></rect><rect width="10" height="10" x="0" y="54" class="scale-2"><title></title></rect><rect width="10" height="10" x="0" y="67.5" class="scale-1"><title></title></rect><rect width="10" height="10" x="0" y="81" class="scale-2"><title></title></rect></g><g transform="translate(648, 0)" class="react-calendar-heatmap-week"><rect width="10" height="10" x="0" y="0" class="scale-1"><title></title></rect><rect width="10" height="10" x="0" y="13.5" class="scale-1"><title></title></rect><rect width="10" height="10" x="0" y="27" class="scale-2"><title></title></rect><rect width="10" height="10" x="0" y="40.5" class="scale-4"><title></title></rect><rect width="10" height="10" x="0" y="54" class="scale-1"><title></title></rect><rect width="10" height="10" x="0" y="67.5" class="scale-3"><title></title></rect><rect width="10" height="10" x="0" y="81" class="scale-3"><title></title></rect></g><g transform="translate(661.5, 0)" class="react-calendar-heatmap-week"><rect width="10" height="10" x="0" y="0" class="scale-3"><title></title></rect><rect width="10" height="10" x="0" y="13.5" class="scale-4"><title></title></rect><rect width="10" height="10" x="0" y="27" class="scale-4"><title></title></rect><rect width="10" height="10" x="0" y="40.5" class="scale-3"><title></title></rect><rect width="10" height="10" x="0" y="54" class="scale-0"><title></title></rect><rect width="10" height="10" x="0" y="67.5" class="scale-1"><title></title></rect><rect width="10" height="10" x="0" y="81" class="scale-3"><title></title></rect></g><g transform="translate(675, 0)" class="react-calendar-heatmap-week"><rect width="10" height="10" x="0" y="0" class="scale-1"><title></title></rect><rect width="10" height="10" x="0" y="13.5" class="scale-1"><title></title></rect><rect width="10" height="10" x="0" y="27" class="scale-1"><title></title></rect><rect width="10" height="10" x="0" y="40.5" class="scale-0"><title></title></rect><rect width="10" height="10" x="0" y="54" class="scale-1"><title></title></rect><rect width="10" height="10" x="0" y="67.5" class="scale-1"><title></title></rect><rect width="10" height="10" x="0" y="81" class="scale-1"><title></title></rect></g><g transform="translate(688.5, 0)" class="react-calendar-heatmap-week"><rect width="10" height="10" x="0" y="0" class="scale-1"><title></title></rect><rect width="10" height="10" x="0" y="13.5" class="scale-2"><title></title></rect><rect width="10" height="10" x="0" y="27" class="scale-2"><title></title></rect><rect width="10" height="10" x="0" y="40.5" class="scale-3"><title></title></rect><rect width="10" height="10" x="0" y="54" class="scale-1"><title></title></rect><rect width="10" height="10" x="0" y="67.5" class="scale-4"><title></title></rect><rect width="10" height="10" x="0" y="81" class="scale-1"><title></title></rect></g><g transform="translate(702, 0)" class="react-calendar-heatmap-week"><rect width="10" height="10" x="0" y="0" class="scale-1"><title></title></rect><rect width="10" height="10" x="0" y="13.5" class="scale-0"><title></title></rect><rect width="10" height="10" x="0" y="27" class="scale-2"><title></title></rect><rect width="10" height="10" x="0" y="40.5" class="scale-3"><title></title></rect><rect width="10" height="10" x="0" y="54" class="scale-1"><title></title></rect><rect width="10" height="10" x="0" y="67.5" class="scale-2"><title></title></rect><rect width="10" height="10" x="0" y="81" class="scale-3"><title></title></rect></g></g></symbol><use xlink:href="#80406"></use></svg>